<?xml version="1.0" encoding="utf-8"?>
<!-- Generator: Adobe Illustrator 18.1.1, SVG Export Plug-In . SVG Version: 6.00 Build 0)  -->
<svg version="1.1" id="Layer_1" xmlns="http://www.w3.org/2000/svg" xmlns:xlink="http://www.w3.org/1999/xlink" x="0px" y="0px"
	 viewBox="0 0 91.8 54.3" enable-background="new 0 0 91.8 54.3" xml:space="preserve">
<g>
	<g>
		<g>
			<path fill="#FFFFFF" d="M10,26.1c-5.5,0-10-4.2-10-13.1S4.6,0,10,0c2.2,0,4.3,0.6,5.5,1.3l-1.3,3.2C13.4,4,12,3.5,10.4,3.5
				c-3.6,0-6.3,3.1-6.3,9.6c0,6.4,2.8,9.6,6.3,9.6c1.6,0,3-0.5,3.7-1l1.3,3.2C14.3,25.6,12.3,26.1,10,26.1z"/>
			<path fill="#FFFFFF" d="M33.7,16.2L21.2,18c0.4,3.4,2.6,5.1,5.8,5.1c1.9,0,3.9-0.5,5.2-1.2l1.1,2.9c-1.5,0.8-4,1.3-6.6,1.3
				c-6,0-9.3-3.8-9.3-9.8c0-5.8,3.2-9.8,8.5-9.8c4.9,0,7.8,3.2,7.8,8.3C33.8,15.2,33.8,15.7,33.7,16.2z M25.9,9.3
				c-2.9,0-4.9,2.2-4.9,6.2l9.1-1.3C30.1,10.9,28.4,9.3,25.9,9.3z"/>
			<path fill="#FFFFFF" d="M44.7,26c-1.2,0-2.5-0.2-3.1-0.5v7.8h-3.8V7.8c1.3-0.7,3.9-1.3,6.5-1.3c5.9,0,9.2,3.7,9.2,9.7
				C53.4,21.9,50.4,26,44.7,26z M44.3,9.5c-1.1,0-2.2,0.2-2.7,0.5v12.6c0.5,0.2,1.7,0.4,2.7,0.4c3.5,0,5.3-2.9,5.3-6.8
				C49.6,12.1,47.8,9.5,44.3,9.5z"/>
			<path fill="#FFFFFF" d="M73.1,16.2L60.5,18c0.4,3.4,2.6,5.1,5.8,5.1c1.9,0,3.9-0.5,5.2-1.2l1.1,2.9c-1.5,0.8-4,1.3-6.6,1.3
				c-6,0-9.3-3.8-9.3-9.8c0-5.8,3.2-9.8,8.5-9.8c4.9,0,7.8,3.2,7.8,8.3C73.1,15.2,73.1,15.7,73.1,16.2z M65.2,9.3
				c-2.9,0-4.9,2.2-4.9,6.2l9.1-1.3C69.4,10.9,67.7,9.3,65.2,9.3z"/>
			<path fill="#FFFFFF" d="M85.8,9.8c-0.6-0.1-1.2-0.2-1.9-0.2c-1.1,0-2.2,0.2-3,0.5v15.7h-3.8V7.8c1.8-0.8,4.5-1.3,7.3-1.3
				c0.8,0,1.6,0,2.1,0.1L85.8,9.8z"/>
		</g>
		<g>
			<path fill="#FFFFFF" d="M4.3,43.2c-1.7,0-3.2-1.3-3.2-4.2c0-2.8,1.4-4.2,3.2-4.2c0.7,0,1.4,0.2,1.7,0.4l-0.4,1
				C5.4,36.1,4.9,36,4.4,36c-1.1,0-2,1-2,3c0,2.1,0.9,3,2,3c0.5,0,0.9-0.1,1.2-0.3l0.4,1C5.6,43,5,43.2,4.3,43.2z"/>
			<path fill="#FFFFFF" d="M11.8,40l-4,0.6c0.1,1.1,0.8,1.6,1.8,1.6c0.6,0,1.2-0.1,1.7-0.4l0.4,0.9c-0.5,0.2-1.3,0.4-2.1,0.4
				c-1.9,0-3-1.2-3-3.1c0-1.8,1-3.1,2.7-3.1c1.6,0,2.5,1,2.5,2.6C11.8,39.7,11.8,39.9,11.8,40z M9.3,37.8c-0.9,0-1.6,0.7-1.6,2
				l2.9-0.4C10.7,38.3,10.1,37.8,9.3,37.8z"/>
			<path fill="#FFFFFF" d="M16.7,43.1v-4c0-0.7-0.4-1.1-1.3-1.1c-0.4,0-0.9,0.1-1.1,0.2v5h-1.2v-5.7c0.6-0.2,1.4-0.4,2.3-0.4
				c1.7,0,2.5,0.7,2.5,2v4.1H16.7z"/>
			<path fill="#FFFFFF" d="M21.4,43.2c-1.1,0-1.7-0.6-1.7-1.8V38h-0.8v-0.9h0.8v-1.4l1.2-0.4v1.8h1.2V38h-1.2v3.3
				c0,0.5,0.4,0.8,0.8,0.8c0.1,0,0.3,0,0.4-0.1v1C22,43.1,21.7,43.2,21.4,43.2z"/>
			<path fill="#FFFFFF" d="M26.1,38c-0.2,0-0.4-0.1-0.6-0.1c-0.3,0-0.7,0.1-0.9,0.2v5h-1.2v-5.7c0.6-0.2,1.4-0.4,2.3-0.4
				c0.3,0,0.5,0,0.7,0L26.1,38z"/>
			<path fill="#FFFFFF" d="M29.6,43.2c-1.7,0-2.6-1.4-2.6-3.1c0-1.8,0.9-3.1,2.6-3.1c1.7,0,2.6,1.3,2.6,3.1
				C32.2,41.8,31.3,43.2,29.6,43.2z M29.6,37.9c-0.9,0-1.4,0.8-1.4,2.1c0,1.3,0.5,2.2,1.4,2.2c0.9,0,1.4-0.9,1.4-2.2
				C31,38.8,30.5,37.9,29.6,37.9z"/>
			<path fill="#FFFFFF" d="M39.1,43.2c-1.9,0-2.9-1.2-2.9-3.1c0-1.8,1-3.1,2.8-3.1c0.4,0,0.8,0.1,1,0.1v-2.8h1.2v8.5
				C40.7,43,39.9,43.2,39.1,43.2z M39.9,38.1c-0.2-0.1-0.5-0.1-0.9-0.1c-1.1,0-1.7,0.9-1.7,2.2c0,1.3,0.6,2.1,1.7,2.1
				c0.3,0,0.7-0.1,0.9-0.2V38.1z"/>
			<path fill="#FFFFFF" d="M47.6,40l-4,0.6c0.1,1.1,0.8,1.6,1.8,1.6c0.6,0,1.2-0.1,1.7-0.4l0.4,0.9c-0.5,0.2-1.3,0.4-2.1,0.4
				c-1.9,0-3-1.2-3-3.1c0-1.8,1-3.1,2.7-3.1c1.6,0,2.5,1,2.5,2.6C47.6,39.7,47.6,39.9,47.6,40z M45.1,37.8c-0.9,0-1.6,0.7-1.6,2
				l2.9-0.4C46.4,38.3,45.9,37.8,45.1,37.8z"/>
			<path fill="#FFFFFF" d="M51.8,43.1V35h4.2v1.1h-3v2.4h2.7v1h-2.7V42h3v1.1H51.8z"/>
			<path fill="#FFFFFF" d="M58.9,43.2c-0.7,0-1.4-0.2-1.9-0.4l0.4-0.9c0.3,0.2,1,0.4,1.4,0.4c0.7,0,1.1-0.3,1.1-0.8
				c0-0.5-0.5-0.8-1.1-1c-0.8-0.3-1.7-0.7-1.7-1.8c0-1,0.8-1.7,2.1-1.7c0.7,0,1.3,0.2,1.8,0.4l-0.4,0.8c-0.3-0.2-0.8-0.4-1.2-0.4
				c-0.6,0-1,0.3-1,0.8c0,0.5,0.4,0.7,1,1c0.8,0.3,1.8,0.7,1.8,1.8C61.2,42.5,60.4,43.2,58.9,43.2z"/>
			<path fill="#FFFFFF" d="M64.5,43.2c-1.1,0-1.7-0.6-1.7-1.8V38H62v-0.9h0.8v-1.4l1.2-0.4v1.8h1.2V38H64v3.3c0,0.5,0.4,0.8,0.8,0.8
				c0.1,0,0.3,0,0.4-0.1v1C65.1,43.1,64.8,43.2,64.5,43.2z"/>
			<path fill="#FFFFFF" d="M68.8,43.2c-1.6,0-2.4-0.7-2.4-2.2v-4h1.2v4c0,0.8,0.4,1.1,1.2,1.1c0.5,0,0.9-0.1,1.1-0.2v-5h1.2v5.7
				C70.6,43,69.7,43.2,68.8,43.2z"/>
			<path fill="#FFFFFF" d="M75.3,43.2c-1.9,0-2.9-1.2-2.9-3.1c0-1.8,1-3.1,2.8-3.1c0.4,0,0.8,0.1,1,0.1v-2.8h1.2v8.5
				C77,43,76.2,43.2,75.3,43.2z M76.1,38.1c-0.2-0.1-0.5-0.1-0.9-0.1c-1.1,0-1.7,0.9-1.7,2.2c0,1.3,0.6,2.1,1.7,2.1
				c0.3,0,0.7-0.1,0.9-0.2V38.1z"/>
			<path fill="#FFFFFF" d="M79.5,36c-0.4,0-0.7-0.3-0.7-0.7c0-0.4,0.3-0.7,0.7-0.7c0.4,0,0.7,0.3,0.7,0.7C80.2,35.7,79.9,36,79.5,36
				z M78.9,43.1v-6h1.2v6H78.9z"/>
			<path fill="#FFFFFF" d="M84.1,43.2c-1.7,0-2.6-1.4-2.6-3.1c0-1.8,0.9-3.1,2.6-3.1c1.7,0,2.6,1.3,2.6,3.1
				C86.7,41.8,85.8,43.2,84.1,43.2z M84.1,37.9c-0.9,0-1.4,0.8-1.4,2.1c0,1.3,0.5,2.2,1.4,2.2c0.9,0,1.4-0.9,1.4-2.2
				C85.5,38.8,85,37.9,84.1,37.9z"/>
			<path fill="#FFFFFF" d="M89.5,43.2c-0.7,0-1.4-0.2-1.9-0.4l0.4-0.9c0.3,0.2,1,0.4,1.4,0.4c0.7,0,1.1-0.3,1.1-0.8
				c0-0.5-0.5-0.8-1.1-1c-0.8-0.3-1.7-0.7-1.7-1.8c0-1,0.8-1.7,2.1-1.7c0.7,0,1.3,0.2,1.8,0.4l-0.4,0.8C91,38,90.5,37.9,90,37.9
				c-0.6,0-1,0.3-1,0.8c0,0.5,0.4,0.7,1,1c0.8,0.3,1.8,0.7,1.8,1.8C91.8,42.5,91,43.2,89.5,43.2z"/>
			<path fill="#FFFFFF" d="M6.2,51.2l-4,0.6c0.1,1.1,0.8,1.6,1.8,1.6c0.6,0,1.3-0.1,1.7-0.4l0.4,0.9c-0.5,0.2-1.3,0.4-2.1,0.4
				c-1.9,0-3-1.2-3-3.1c0-1.8,1-3.1,2.7-3.1c1.6,0,2.5,1,2.5,2.6C6.2,50.9,6.2,51,6.2,51.2z M3.7,49c-0.9,0-1.6,0.7-1.6,2l2.9-0.4
				C5.1,49.5,4.5,49,3.7,49z"/>
			<path fill="#FFFFFF" d="M11.1,54.2v-4c0-0.7-0.4-1.1-1.3-1.1c-0.4,0-0.9,0.1-1.1,0.2v5H7.5v-5.7c0.6-0.2,1.4-0.4,2.3-0.4
				c1.7,0,2.5,0.7,2.5,2v4.1H11.1z"/>
			<path fill="#FFFFFF" d="M18.9,51c-0.3,0-0.6,0-0.8-0.1v3.3h-1.2v-7.8c0.6-0.3,1.4-0.4,2.2-0.4c1.9,0,3,1,3,2.5
				C22,50,20.9,51,18.9,51z M19,47c-0.4,0-0.8,0.1-1,0.2V50c0.2,0,0.5,0.1,0.8,0.1c1.3,0,1.9-0.6,1.9-1.5C20.8,47.5,20.2,47,19,47z"
				/>
			<path fill="#FFFFFF" d="M27.9,51.2l-4,0.6c0.1,1.1,0.8,1.6,1.8,1.6c0.6,0,1.2-0.1,1.7-0.4l0.4,0.9c-0.5,0.2-1.3,0.4-2.1,0.4
				c-1.9,0-3-1.2-3-3.1c0-1.8,1-3.1,2.7-3.1c1.6,0,2.5,1,2.5,2.6C27.9,50.9,27.9,51,27.9,51.2z M25.4,49c-0.9,0-1.6,0.7-1.6,2
				l2.9-0.4C26.7,49.5,26.2,49,25.4,49z"/>
			<path fill="#FFFFFF" d="M32,49.1c-0.2,0-0.4-0.1-0.6-0.1c-0.3,0-0.7,0.1-0.9,0.2v5h-1.2v-5.7c0.6-0.2,1.4-0.4,2.3-0.4
				c0.3,0,0.5,0,0.7,0L32,49.1z"/>
			<path fill="#FFFFFF" d="M33.9,47.1c-0.4,0-0.7-0.3-0.7-0.7c0-0.4,0.3-0.7,0.7-0.7c0.4,0,0.7,0.3,0.7,0.7
				C34.6,46.8,34.3,47.1,33.9,47.1z M33.3,54.2v-6h1.2v6H33.3z"/>
			<path fill="#FFFFFF" d="M38.4,54.3c-1.7,0-2.6-1.3-2.6-3.1c0-1.8,0.9-3.1,2.6-3.1c1.7,0,2.6,1.3,2.6,3.1
				C41.1,53,40.2,54.3,38.4,54.3z M38.4,49.1c-0.9,0-1.4,0.8-1.4,2.1c0,1.3,0.5,2.2,1.4,2.2c0.9,0,1.4-0.9,1.4-2.2
				C39.9,49.9,39.4,49.1,38.4,49.1z"/>
			<path fill="#FFFFFF" d="M45.1,54.3c-1.9,0-2.9-1.2-2.9-3.1c0-1.8,1-3.1,2.8-3.1c0.4,0,0.8,0.1,1,0.1v-2.8h1.2v8.5
				C46.7,54.1,45.9,54.3,45.1,54.3z M45.9,49.2c-0.2-0.1-0.5-0.1-0.9-0.1c-1.1,0-1.7,0.9-1.7,2.2c0,1.3,0.6,2.1,1.7,2.1
				c0.3,0,0.7-0.1,0.9-0.2V49.2z"/>
			<path fill="#FFFFFF" d="M49.3,47.1c-0.4,0-0.7-0.3-0.7-0.7c0-0.4,0.3-0.7,0.7-0.7c0.4,0,0.7,0.3,0.7,0.7
				C50,46.8,49.7,47.1,49.3,47.1z M48.7,54.2v-6h1.2v6H48.7z"/>
			<path fill="#FFFFFF" d="M52.9,54.3c-0.7,0-1.4-0.2-1.9-0.4l0.4-0.9c0.3,0.2,1,0.4,1.4,0.4c0.7,0,1.1-0.3,1.1-0.8
				c0-0.5-0.5-0.8-1.1-1c-0.8-0.3-1.7-0.7-1.7-1.8c0-1,0.8-1.7,2.1-1.7c0.7,0,1.3,0.2,1.8,0.4l-0.4,0.8c-0.3-0.2-0.8-0.4-1.2-0.4
				c-0.6,0-1,0.3-1,0.8c0,0.5,0.4,0.7,1,1c0.8,0.3,1.8,0.7,1.8,1.8C55.3,53.6,54.4,54.3,52.9,54.3z"/>
			<path fill="#FFFFFF" d="M63.5,54.2v-4.1c0-0.7-0.5-1.1-1.1-1.1c-0.5,0-0.9,0.1-1.1,0.4v4.8H60V50c0-0.6-0.5-1-1.2-1
				c-0.4,0-0.8,0.1-1,0.2v5h-1.2v-5.7c0.6-0.2,1.3-0.4,2.2-0.4c0.9,0,1.6,0.3,1.9,0.6c0.4-0.3,1.1-0.6,2-0.6c1.3,0,2.1,0.7,2.1,1.9
				v4.2H63.5z"/>
			<path fill="#FFFFFF" d="M68.6,54.3c-1.7,0-2.6-1.3-2.6-3.1c0-1.8,0.9-3.1,2.6-3.1c1.7,0,2.6,1.3,2.6,3.1
				C71.2,53,70.3,54.3,68.6,54.3z M68.6,49.1c-0.9,0-1.4,0.8-1.4,2.1c0,1.3,0.5,2.2,1.4,2.2c0.9,0,1.4-0.9,1.4-2.2
				C70,49.9,69.5,49.1,68.6,49.1z"/>
		</g>
	</g>
</g>
</svg>
