<?xml version="1.0" encoding="utf-8"?>
<!-- Generator: Adobe Illustrator 18.1.1, SVG Export Plug-In . SVG Version: 6.00 Build 0)  -->
<svg version="1.1" id="Layer_1" xmlns="http://www.w3.org/2000/svg" xmlns:xlink="http://www.w3.org/1999/xlink" x="0px" y="0px"
	 viewBox="0 0 317.7 48" enable-background="new 0 0 317.7 48" xml:space="preserve">
<g>
	<g>
		<path fill="#FFFFFF" d="M67.3,9.2c-0.9-0.9-1.8-1.6-2.8-2.1c-1-0.5-2.1-0.8-3.2-0.8c-1.1,0-2.2,0.2-3.2,0.7c-1,0.5-1.9,1.2-2.6,2
			c-0.7,0.8-1.3,1.8-1.8,3c-0.4,1.1-0.6,2.4-0.6,3.7c0,1.3,0.2,2.5,0.6,3.7c0.4,1.2,1,2.2,1.7,3c0.7,0.9,1.6,1.5,2.6,2.1
			c1,0.5,2.1,0.8,3.3,0.8c1.1,0,2.1-0.3,3.1-0.8c1-0.5,1.9-1.2,2.8-2.1l1.7,1.7c-1.1,1.1-2.3,2-3.6,2.7c-1.3,0.7-2.7,1-4.1,1
			c-1.4,0-2.8-0.3-4.1-1c-1.3-0.6-2.4-1.5-3.4-2.6c-1-1.1-1.8-2.4-2.4-3.8c-0.6-1.5-0.9-3-0.9-4.6c0-1.6,0.3-3.1,0.8-4.5
			c0.6-1.4,1.3-2.7,2.3-3.8c1-1.1,2.1-2,3.4-2.6c1.3-0.6,2.7-1,4.2-1c1.4,0,2.8,0.3,4.1,1C66.8,5.4,68,6.3,69,7.5L67.3,9.2z"/>
		<path fill="#FFFFFF" d="M73.7,16.2v11.2h-2.5V3.9h2.5v9.8H85V3.9h2.4v23.5H85V16.2H73.7z"/>
		<path fill="#FFFFFF" d="M92.6,27.4h-2.5V3.9h2.5V27.4z"/>
		<path fill="#FFFFFF" d="M111,9.2c-0.9-0.9-1.8-1.6-2.8-2.1c-1-0.5-2.1-0.8-3.2-0.8c-1.1,0-2.2,0.2-3.2,0.7c-1,0.5-1.9,1.2-2.6,2
			c-0.7,0.8-1.3,1.8-1.8,3c-0.4,1.1-0.6,2.4-0.6,3.7c0,1.3,0.2,2.5,0.6,3.7c0.4,1.2,1,2.2,1.7,3c0.7,0.9,1.6,1.5,2.6,2.1
			c1,0.5,2.1,0.8,3.3,0.8c1.1,0,2.1-0.3,3.1-0.8c1-0.5,1.9-1.2,2.8-2.1l1.7,1.7c-1.1,1.1-2.3,2-3.6,2.7c-1.3,0.7-2.7,1-4.1,1
			c-1.4,0-2.8-0.3-4.1-1c-1.3-0.6-2.4-1.5-3.4-2.6c-1-1.1-1.8-2.4-2.4-3.8c-0.6-1.5-0.9-3-0.9-4.6c0-1.6,0.3-3.1,0.8-4.5
			c0.6-1.4,1.3-2.7,2.3-3.8c1-1.1,2.1-2,3.4-2.6c1.3-0.6,2.7-1,4.2-1c1.4,0,2.8,0.3,4.2,1c1.3,0.7,2.5,1.6,3.6,2.7L111,9.2z"/>
		<path fill="#FFFFFF" d="M122.9,3.9h1.9l8.7,23.5h-2.6l-3.4-9.3h-7.1c-0.4,1-0.7,2-1.1,3c-0.4,1-0.8,2-1.1,3
			c-0.2,0.5-0.4,1.1-0.6,1.7c-0.2,0.6-0.4,1.1-0.6,1.6h-2.6L122.9,3.9z M126.5,15.7c-0.2-0.5-0.4-1.1-0.6-1.8
			c-0.2-0.6-0.5-1.2-0.6-1.7v0c-0.1-0.4-0.3-0.7-0.4-1c-0.1-0.3-0.2-0.6-0.3-0.8c-0.1-0.3-0.2-0.6-0.3-0.9c-0.1-0.3-0.2-0.6-0.4-1.1
			c-0.2,0.4-0.4,0.9-0.5,1.4c-0.2,0.5-0.3,0.9-0.5,1.4v0c-0.3,0.8-0.6,1.5-0.8,2.1c-0.2,0.6-0.5,1.4-0.8,2.2H126.5z"/>
		<path fill="#FFFFFF" d="M136.9,22.5c0.6,0.9,1.3,1.5,2.1,2c0.8,0.5,1.8,0.7,2.8,0.7c0.6,0,1.2-0.1,1.8-0.3
			c0.6-0.2,1.1-0.5,1.5-0.8c0.4-0.3,0.8-0.7,1-1.2c0.2-0.5,0.4-1,0.4-1.5c0-0.5-0.1-1-0.4-1.5c-0.2-0.5-0.6-0.9-1-1.3
			c-0.4-0.4-0.9-0.7-1.4-1c-0.5-0.3-1.1-0.5-1.7-0.5c-1-0.1-1.9-0.4-2.7-0.8c-0.8-0.4-1.6-0.9-2.2-1.5c-0.6-0.6-1.1-1.3-1.5-2
			c-0.4-0.7-0.5-1.5-0.5-2.4c0-0.9,0.2-1.8,0.6-2.6c0.4-0.8,0.9-1.5,1.6-2.1c0.7-0.6,1.5-1,2.4-1.4c0.9-0.3,1.9-0.5,2.9-0.5
			c1.4,0,2.6,0.3,3.7,0.8c1.1,0.5,2.1,1.3,3,2.3l-2,1.6c-0.6-0.7-1.3-1.3-2-1.7c-0.8-0.4-1.6-0.6-2.6-0.6c-0.6,0-1.2,0.1-1.8,0.3
			c-0.6,0.2-1.1,0.5-1.6,0.9c-0.5,0.4-0.8,0.8-1.1,1.3c-0.3,0.5-0.4,1-0.4,1.5s0.1,1.1,0.4,1.6c0.2,0.5,0.6,1,1,1.4
			c0.4,0.4,0.9,0.7,1.5,1c0.6,0.3,1.2,0.4,1.8,0.5c1,0.1,1.9,0.4,2.7,0.8c0.8,0.4,1.5,0.9,2.2,1.5c0.6,0.6,1.1,1.3,1.4,2
			c0.3,0.8,0.5,1.5,0.5,2.4c0,0.9-0.2,1.8-0.6,2.5c-0.4,0.8-0.9,1.5-1.6,2c-0.7,0.6-1.4,1-2.3,1.4s-1.8,0.5-2.8,0.5
			c-1.4,0-2.7-0.3-3.9-1c-1.2-0.7-2.2-1.6-2.9-2.7L136.9,22.5z"/>
		<path fill="#FFFFFF" d="M153.7,15.7l0,11.8h-1.4l0-23.5h6.8c0.9,0,1.8,0.2,2.6,0.5c0.8,0.3,1.5,0.7,2.1,1.2
			c0.6,0.5,1.1,1.1,1.4,1.8c0.4,0.7,0.5,1.5,0.5,2.2c0,0.8-0.2,1.6-0.5,2.3c-0.4,0.7-0.8,1.4-1.4,1.9c-0.6,0.5-1.3,1-2.1,1.3
			c-0.8,0.3-1.7,0.5-2.6,0.5H153.7z M153.7,5.3v8.9h5.3c0.7,0,1.4-0.1,2-0.3c0.6-0.2,1.2-0.5,1.7-1c0.5-0.4,0.8-0.9,1.1-1.4
			c0.3-0.5,0.4-1.1,0.4-1.8c0-0.6-0.1-1.2-0.4-1.7c-0.3-0.5-0.6-1-1.1-1.4c-0.5-0.4-1-0.7-1.7-1c-0.6-0.2-1.3-0.4-2-0.4H159H153.7z"
			/>
		<path fill="#FFFFFF" d="M185.9,24.4c-1,1.1-2.1,1.9-3.4,2.4c-1.3,0.6-2.6,0.9-4.1,0.9c-1.4,0-2.8-0.3-4.1-0.9
			c-1.3-0.6-2.4-1.5-3.4-2.5c-1-1.1-1.8-2.4-2.3-3.8c-0.6-1.5-0.9-3.1-0.9-4.8c0-1.7,0.3-3.2,0.8-4.6c0.6-1.4,1.3-2.7,2.3-3.8
			c1-1.1,2.1-1.9,3.4-2.6c1.3-0.6,2.7-0.9,4.2-0.9c1.5,0,2.9,0.3,4.2,0.9c1.3,0.6,2.4,1.5,3.4,2.5c1,1.1,1.7,2.3,2.2,3.8
			c0.5,1.5,0.8,3,0.8,4.7c0,1.8-0.3,3.4-0.9,4.9C187.7,22.1,186.9,23.3,185.9,24.4z M184.8,8c-0.8-0.9-1.7-1.6-2.8-2.1
			c-1.1-0.5-2.3-0.7-3.5-0.7c-1.3,0-2.5,0.3-3.6,0.8c-1.1,0.5-2.1,1.3-2.9,2.2c-0.8,0.9-1.5,2-2,3.3c-0.5,1.3-0.7,2.6-0.7,4.1
			c0,1.5,0.2,2.9,0.7,4.1c0.5,1.3,1.1,2.4,2,3.4c0.8,1,1.8,1.7,2.9,2.3c1.1,0.6,2.3,0.8,3.6,0.8c1.3,0,2.5-0.3,3.7-0.8
			c1.1-0.6,2.1-1.3,3-2.3c0.8-1,1.5-2.1,2-3.4c0.5-1.3,0.7-2.7,0.7-4.1c0-1.5-0.3-3-0.8-4.3C186.5,10.1,185.8,9,184.8,8z"/>
		<path fill="#FFFFFF" d="M191.5,3.9h1.4h7.2c1.1,0,2.2,0.3,3.2,1c1,0.6,1.9,1.4,2.6,2.5c0.7,1.1,1.3,2.3,1.8,3.7
			c0.4,1.4,0.6,2.9,0.6,4.5c0,1.6-0.2,3.1-0.6,4.5c-0.4,1.4-1,2.7-1.7,3.7c-0.7,1.1-1.6,1.9-2.6,2.5c-1,0.6-2,0.9-3.2,1l0,0.1h-8.7
			L191.5,3.9z M193,5.3V26h7.3v-0.1c0.9,0,1.8-0.3,2.6-0.9c0.8-0.6,1.5-1.3,2.1-2.2c0.6-0.9,1.1-2,1.4-3.2c0.4-1.2,0.5-2.6,0.5-4
			c0-1.4-0.2-2.7-0.5-3.9c-0.4-1.2-0.8-2.3-1.4-3.3c-0.6-0.9-1.3-1.7-2.1-2.2c-0.8-0.5-1.7-0.8-2.7-0.9H193z"/>
		<path fill="#FFFFFF" d="M223.1,15.6h-10.4V26h12.1l0,1.4h-13.6l0-23.5h13.6v1.4h-12.1v8.9h10.4V15.6z"/>
		<path fill="#FFFFFF" d="M229.2,15.6l0,11.8h-1.4l0-23.5h6.7c0.9,0,1.8,0.2,2.6,0.5c0.8,0.3,1.5,0.7,2.1,1.2
			c0.6,0.5,1.1,1.1,1.4,1.8c0.4,0.7,0.5,1.5,0.5,2.3c0,0.8-0.2,1.6-0.5,2.3c-0.4,0.7-0.8,1.3-1.4,1.9c-0.6,0.5-1.3,1-2.1,1.3
			c-0.8,0.3-1.7,0.5-2.6,0.5h-3.4l10.4,11.8h-1.8L229.2,15.6L229.2,15.6z M229.2,5.2v8.9h5.3c0.7,0,1.4-0.1,2-0.3
			c0.6-0.2,1.2-0.5,1.7-0.9c0.5-0.4,0.9-0.9,1.1-1.4c0.3-0.5,0.4-1.1,0.4-1.8c0-0.6-0.1-1.2-0.4-1.7c-0.3-0.5-0.7-1-1.1-1.4
			c-0.5-0.4-1-0.7-1.7-1c-0.6-0.2-1.3-0.4-2-0.4h-0.1H229.2z"/>
		<path fill="#FFFFFF" d="M261.6,24.4c-1,1.1-2.1,1.9-3.4,2.4c-1.3,0.6-2.6,0.9-4.1,0.9c-1.4,0-2.8-0.3-4.1-0.9
			c-1.3-0.6-2.4-1.5-3.4-2.5c-1-1.1-1.8-2.4-2.3-3.8c-0.6-1.5-0.9-3.1-0.9-4.8c0-1.7,0.3-3.2,0.8-4.6c0.6-1.4,1.3-2.7,2.3-3.8
			c1-1.1,2.1-1.9,3.4-2.6c1.3-0.6,2.7-0.9,4.2-0.9c1.5,0,2.9,0.3,4.2,0.9c1.3,0.6,2.4,1.5,3.4,2.5c1,1.1,1.7,2.3,2.2,3.8
			c0.5,1.5,0.8,3,0.8,4.7c0,1.8-0.3,3.4-0.9,4.9C263.4,22.1,262.6,23.3,261.6,24.4z M260.5,8c-0.8-0.9-1.7-1.6-2.8-2.1
			c-1.1-0.5-2.3-0.7-3.5-0.7c-1.3,0-2.5,0.3-3.6,0.8c-1.1,0.5-2.1,1.3-2.9,2.2s-1.5,2-2,3.3c-0.5,1.3-0.7,2.6-0.7,4.1
			c0,1.5,0.2,2.9,0.7,4.1c0.5,1.3,1.1,2.4,2,3.4c0.8,1,1.8,1.7,2.9,2.3c1.1,0.6,2.3,0.8,3.6,0.8c1.3,0,2.5-0.3,3.7-0.8
			c1.1-0.6,2.1-1.3,3-2.3c0.8-1,1.5-2.1,2-3.4c0.5-1.3,0.7-2.7,0.7-4.1c0-1.5-0.3-3-0.8-4.3C262.2,10.1,261.4,9,260.5,8z"/>
		<path fill="#FFFFFF" d="M268.6,23.6c0.5,0.8,1.3,1.5,2.2,2c0.9,0.5,2,0.7,3.2,0.7c0.7,0,1.4-0.1,2.1-0.4c0.7-0.2,1.3-0.6,1.8-1
			c0.5-0.4,0.9-0.9,1.2-1.5c0.3-0.6,0.4-1.2,0.4-1.8c0-0.7-0.1-1.3-0.4-1.9c-0.3-0.6-0.6-1.1-1.1-1.6c-0.5-0.5-1-0.8-1.6-1.1
			c-0.6-0.3-1.3-0.5-2-0.6h-0.1c-1-0.1-1.9-0.3-2.7-0.7c-0.8-0.4-1.5-0.9-2.1-1.4c-0.6-0.6-1.1-1.2-1.4-2c-0.3-0.7-0.5-1.5-0.5-2.3
			c0-0.9,0.2-1.7,0.6-2.5c0.4-0.8,0.9-1.4,1.5-2c0.7-0.6,1.4-1,2.3-1.3c0.9-0.3,1.8-0.5,2.8-0.5c1.3,0,2.4,0.2,3.5,0.7
			c1,0.5,1.9,1.1,2.6,1.9l-1.2,0.9c-0.6-0.7-1.3-1.2-2.1-1.6c-0.9-0.4-1.8-0.6-2.8-0.6c-0.7,0-1.5,0.1-2.2,0.4
			c-0.7,0.2-1.3,0.6-1.8,1c-0.5,0.4-1,0.9-1.3,1.5c-0.3,0.6-0.5,1.2-0.5,1.9c0,0.7,0.1,1.3,0.4,1.9c0.3,0.6,0.7,1.1,1.1,1.6
			c0.5,0.5,1.1,0.9,1.7,1.2c0.7,0.3,1.4,0.5,2.2,0.6c1,0.1,1.8,0.4,2.6,0.8c0.8,0.4,1.5,0.8,2.1,1.4c0.6,0.6,1,1.2,1.4,1.9
			c0.3,0.7,0.5,1.5,0.5,2.3c0,0.9-0.2,1.7-0.6,2.4c-0.4,0.8-0.9,1.4-1.5,2c-0.6,0.6-1.4,1-2.2,1.3c-0.9,0.3-1.8,0.5-2.8,0.5
			c-1.4,0-2.6-0.3-3.8-0.9c-1.1-0.6-2-1.4-2.7-2.3L268.6,23.6z"/>
		<path fill="#FFFFFF" d="M292.2,3.9h1.2l8.7,23.5h-1.5l-3.7-9.8h-8.3l-3.6,9.8h-1.5L292.2,3.9z M296.4,16.2l-3.6-9.8l-3.6,9.8
			H296.4z"/>
		<path fill="#FFFFFF" d="M305.4,23.6c0.5,0.8,1.3,1.5,2.2,2c0.9,0.5,2,0.7,3.2,0.7c0.7,0,1.4-0.1,2.1-0.4c0.7-0.2,1.3-0.6,1.8-1
			c0.5-0.4,0.9-0.9,1.2-1.5c0.3-0.6,0.4-1.2,0.4-1.8c0-0.7-0.1-1.3-0.4-1.9c-0.3-0.6-0.6-1.1-1.1-1.6c-0.5-0.5-1-0.8-1.6-1.1
			c-0.6-0.3-1.3-0.5-2-0.6H311c-1-0.1-1.9-0.3-2.7-0.7c-0.8-0.4-1.5-0.9-2.1-1.4c-0.6-0.6-1.1-1.2-1.4-2c-0.3-0.7-0.5-1.5-0.5-2.3
			c0-0.9,0.2-1.7,0.6-2.5c0.4-0.8,0.9-1.4,1.5-2c0.7-0.6,1.4-1,2.3-1.3c0.9-0.3,1.8-0.5,2.8-0.5c1.3,0,2.4,0.2,3.5,0.7
			c1,0.5,1.9,1.1,2.6,1.9l-1.2,0.9c-0.6-0.7-1.3-1.2-2.1-1.6c-0.8-0.4-1.8-0.6-2.8-0.6c-0.7,0-1.5,0.1-2.2,0.4
			c-0.7,0.2-1.3,0.6-1.8,1c-0.5,0.4-1,0.9-1.3,1.5c-0.3,0.6-0.5,1.2-0.5,1.9c0,0.7,0.1,1.3,0.4,1.9c0.3,0.6,0.7,1.1,1.1,1.6
			c0.5,0.5,1.1,0.9,1.7,1.2c0.7,0.3,1.4,0.5,2.2,0.6c1,0.1,1.8,0.4,2.6,0.8c0.8,0.4,1.5,0.8,2.1,1.4c0.6,0.6,1,1.2,1.4,1.9
			c0.3,0.7,0.5,1.5,0.5,2.3c0,0.9-0.2,1.7-0.6,2.4c-0.4,0.8-0.9,1.4-1.5,2c-0.6,0.6-1.4,1-2.2,1.3c-0.9,0.3-1.8,0.5-2.8,0.5
			c-1.4,0-2.6-0.3-3.8-0.9c-1.1-0.6-2-1.4-2.7-2.3L305.4,23.6z"/>
	</g>
	<g>
		<path fill="#FFFFFF" d="M2.5,27.6H0V4.1h2.5V27.6z"/>
	</g>
	<polygon fill="#DD4096" points="16,0 30.9,0 30.6,7.3 25.4,35.9 24.9,35.9 11.7,5.1 	"/>
	<polyline fill="#DD4096" points="24.2,48 32.9,1.2 42.3,17.6 	"/>
</g>
</svg>
